<?xml version="1.0" encoding="utf-8"?>
<!-- Generator: Adobe Illustrator 18.0.0, SVG Export Plug-In . SVG Version: 6.00 Build 0)  -->
<!DOCTYPE svg PUBLIC "-//W3C//DTD SVG 1.1//EN" "http://www.w3.org/Graphics/SVG/1.1/DTD/svg11.dtd">
<svg version="1.1" xmlns="http://www.w3.org/2000/svg" xmlns:xlink="http://www.w3.org/1999/xlink" x="0px" y="0px"
	 viewBox="0 0 424.1 205.8" enable-background="new 0 0 424.1 205.8" xml:space="preserve">
<g id="Layer_1">
</g>
<g id="sides">
	<g>
		<path fill="#B2B25A" d="M95.5,139.6l102-62.4c10.8-7.7,18.9-8.1,31.4,0l101,61.8c4,2.6,12.8,13.3-9.6,13.3H106.1
			C86.1,152.3,90.8,142.5,95.5,139.6z"/>
		<path fill="#FFFFFF" d="M223.2,97.8c-5.1,0-9.8,2-13.4,5.2c-1.6-0.4-3.2-0.6-4.9-0.6c-11.3,0-20.5,9-20.5,20.2s9.2,20.2,20.5,20.2
			c3.4,0,6.5-0.8,9.3-2.2c2.7,1.4,5.8,2.2,9.1,2.2c11.6,0,21-10.1,21-22.5C244.2,107.9,234.8,97.8,223.2,97.8z"/>
		<path fill="#FFFFFF" d="M208.1,99.2c0,0-5.8-4.3-10.9-5.1c-0.7-0.1-1.1-0.9-0.7-1.6c1.1-1.5,3.2-3.8,6.5-4.3
			c0.4-0.1,0.7,0.1,0.9,0.4C205,89.9,207.6,93.8,208.1,99.2z"/>
		<path fill="none" stroke="#B2B25A" stroke-width="2.2434" stroke-miterlimit="10" d="M211.6,99.2c0,0-13.8,15.4,4.4,44.9"/>
		<path fill="#B2B25A" d="M343.3,131.6h-40.2c-2.6,0-4.8,2.1-4.8,4.8v11.2c0,2.6,2.1,4.8,4.8,4.8h40.2c2.6,0,4.8-2.1,4.8-4.8v-11.2
			C348.1,133.7,346,131.6,343.3,131.6z"/>
		<path fill="#B2B25A" d="M121.7,131.6H81.5c-2.6,0-4.8,2.1-4.8,4.8v11.2c0,2.6,2.1,4.8,4.8,4.8h40.2c2.6,0,4.8-2.1,4.8-4.8v-11.2
			C126.5,133.7,124.3,131.6,121.7,131.6z"/>
		<path fill="#B2B25A" d="M127,117.8v-14.2c0-1.3-1.1-2.4-2.4-2.4h-9.5c-1.3,0-2.4,1.1-2.4,2.4v23.2L127,117.8z"/>
	</g>
	<path fill="#BE1E2D" d="M123.5,95.5c-1.1-5.6-1.1-7.4-6.3-8.8c-1-0.3-5.1-0.8-6.2-1c-8.7-1.8-6.2-10,1.7-9.7c5.4,0.2,5.9-12-9.8-6
		c-3.7,1.4-7.9-0.3-10-3.6c-1.6-2.6-0.8-8.7,5.6-11.9c2.4-1.2,6.1-1.7,8.7-1.4c6.7,0.7,14.3,2.2,16.5,15.1c0.5,3.1-0.8,8-3.4,9.6
		c-1.7,1-3.9,1.9-6.7,2.2c-2,0.2-4.1,2.4,4.8,3.8c8.7,1.4,5.5,13.7,5.5,13.7L123.5,95.5z"/>
	<text transform="matrix(1 0 0 1 78.7557 190.4247)" fill="#BE1E2D" font-family="'FiraSans-Light'" font-size="38.907">La Porto a Casa</text>
</g>
</svg>
